<svg xmlns="http://www.w3.org/2000/svg" viewBox="0 0 1990 2009" version="1.1"><path d="M 1002.252 326.004 C 955.199 330.929, 910.016 357.739, 870.068 404.437 C 840.741 438.719, 814.796 480.143, 787.549 536.188 C 751.581 610.169, 719.458 700.219, 688.547 813.714 C 673.607 868.566, 653.001 958.020, 637.376 1035.850 C 634.875 1048.307, 632.741 1058.589, 632.633 1058.699 C 631.793 1059.547, 596.591 1077.697, 585 1083.257 C 540.358 1104.673, 485.331 1124.850, 436 1137.893 C 410.969 1144.510, 365.522 1153.840, 340.995 1157.395 C 299.438 1163.420, 241.157 1165.550, 201.500 1162.493 C 169.265 1160.009, 163.591 1160.571, 149 1167.689 C 139.309 1172.417, 132.411 1179.429, 127.191 1189.859 C 116.473 1211.272, 120.267 1235.556, 136.904 1252.033 C 149.171 1264.183, 159.126 1267.286, 191.233 1268.970 C 265.968 1272.890, 341.725 1265.605, 426 1246.394 C 481.528 1233.737, 532.006 1216.841, 585.930 1192.863 C 599.366 1186.888, 611.004 1182, 611.791 1182 C 612.863 1182, 613.071 1182.816, 612.620 1185.250 C 612.289 1187.037, 611.107 1195.250, 609.994 1203.500 C 608.881 1211.750, 606.623 1227.646, 604.975 1238.824 C 602.075 1258.499, 590.724 1348.014, 587.517 1376.500 C 585.364 1395.620, 582.568 1417.718, 578.470 1448 C 574.143 1479.971, 572.610 1497.662, 573.442 1506 C 575.153 1523.138, 580.585 1534.572, 592.982 1547.129 C 602.112 1556.379, 609.268 1560.770, 619.743 1563.550 C 626.870 1565.441, 650.359 1565.695, 657.500 1563.958 C 670.311 1560.842, 686.535 1550.103, 696.500 1538.142 C 707.630 1524.783, 708.999 1521.760, 730.513 1463 C 751.661 1405.239, 785.980 1335.517, 820.834 1279.500 C 879.513 1185.193, 935.946 1125.347, 970 1121.314 C 976.012 1120.602, 982.709 1123.441, 986.386 1128.261 C 996.295 1141.253, 993.664 1179.891, 976.029 1280.378 C 964.599 1345.504, 960.994 1375.033, 961.008 1403.411 C 961.035 1455.588, 974.517 1494.693, 1002.549 1523.898 C 1032.486 1555.088, 1074.261 1569.554, 1124.106 1565.992 C 1185.017 1561.640, 1248.881 1529.689, 1327.270 1464.350 C 1366.156 1431.938, 1382.801 1415.864, 1501.522 1296.085 C 1580.168 1216.737, 1609.140 1191.035, 1652 1162.586 C 1690.938 1136.741, 1729.898 1118.803, 1776 1105.492 C 1793.398 1100.469, 1803.627 1098.254, 1829 1094.016 C 1838.625 1092.408, 1849.164 1090.170, 1852.419 1089.042 C 1868.511 1083.467, 1879.506 1071.072, 1884.022 1053.415 C 1886.523 1043.635, 1886.524 1036.368, 1884.025 1026.596 C 1880.238 1011.791, 1871.698 1000.451, 1859.272 993.728 C 1852.913 990.288, 1840.347 986.998, 1833.590 987.005 C 1825.910 987.014, 1802.357 990.663, 1785.500 994.456 C 1748.137 1002.864, 1717.158 1015.026, 1674.500 1038.033 C 1629.432 1062.340, 1567.261 1109.193, 1507 1164.264 C 1497.925 1172.557, 1462.150 1207.797, 1427.500 1242.574 C 1359.744 1310.579, 1344.056 1325.842, 1313.933 1353.058 C 1256.425 1405.016, 1209.383 1437.531, 1169.500 1452.887 C 1152.143 1459.571, 1147.320 1460.500, 1130 1460.500 C 1115.082 1460.500, 1114.288 1460.396, 1108.850 1457.725 C 1096.029 1451.429, 1092 1439.091, 1092 1406.124 C 1092 1382.570, 1094.804 1358.362, 1103.077 1310.500 C 1117.456 1227.311, 1120.498 1201.240, 1120.465 1161.500 C 1120.449 1143.323, 1120.012 1134.831, 1118.660 1126.500 C 1114.812 1102.778, 1109.139 1086.457, 1100.126 1073.186 C 1097.857 1069.844, 1096 1066.591, 1096 1065.958 C 1096 1065.100, 1107.830 1064.894, 1142.323 1065.153 L 1188.646 1065.500 1192.808 1062.745 C 1195.492 1060.970, 1197.893 1058.172, 1199.565 1054.872 C 1202.326 1049.424, 1208.410 1024.617, 1215.089 991.578 C 1219.100 971.735, 1229.604 923.138, 1230.613 919.750 C 1230.900 918.787, 1231.706 918, 1232.404 918 C 1233.292 918, 1235.100 926.780, 1238.426 947.250 C 1241.040 963.337, 1244.262 982.575, 1245.585 990 C 1246.908 997.425, 1250.024 1017.225, 1252.509 1034 C 1254.994 1050.775, 1260.176 1083.625, 1264.024 1107 C 1267.873 1130.375, 1275.308 1175.600, 1280.547 1207.500 C 1287.316 1248.717, 1290.671 1266.738, 1292.139 1269.777 C 1295.942 1277.650, 1303.917 1281.882, 1315.093 1281.956 C 1323.242 1282.010, 1329.038 1279.260, 1333.741 1273.107 C 1337.383 1268.344, 1337.472 1268.053, 1345.865 1233.500 C 1354.667 1197.269, 1387.226 1064.731, 1392.725 1042.750 C 1395.305 1032.438, 1397.899 1024, 1398.489 1024 C 1399.079 1024, 1402.663 1031.456, 1406.454 1040.570 C 1412.312 1054.655, 1413.944 1057.652, 1417.335 1060.555 C 1419.530 1062.434, 1422.940 1064.273, 1424.913 1064.644 C 1429.446 1065.495, 1539.128 1064.190, 1560.359 1063.032 C 1575.140 1062.226, 1576.635 1061.960, 1582.359 1059.118 C 1594.087 1053.294, 1654.779 1014.518, 1654.934 1012.750 C 1654.970 1012.337, 1609.171 1012, 1553.158 1012 L 1451.316 1012 1441.209 986.250 C 1435.651 972.087, 1427.448 951.167, 1422.982 939.760 C 1418.516 928.353, 1413.431 916.878, 1411.681 914.260 C 1407.469 907.958, 1401.667 904.998, 1393.538 905.006 C 1380.932 905.017, 1373.045 909.714, 1369.125 919.544 C 1367.818 922.820, 1361.243 947.325, 1354.513 974 C 1328.200 1078.291, 1321.649 1103, 1320.312 1103 C 1319.590 1103, 1319 1102.818, 1319 1102.595 C 1319 1102.372, 1317.454 1093.934, 1315.564 1083.845 C 1313.674 1073.755, 1310.711 1056.725, 1308.980 1046 C 1307.249 1035.275, 1303.859 1015.475, 1301.448 1002 C 1299.037 988.525, 1295.269 965.800, 1293.076 951.500 C 1290.883 937.200, 1287.491 915.600, 1285.539 903.500 C 1259.838 744.174, 1260.970 749.904, 1253.669 742.223 C 1246.344 734.515, 1231.259 734.041, 1222.522 741.243 C 1216.644 746.088, 1214.587 751.739, 1208.036 781.046 C 1204.661 796.146, 1199.648 818.175, 1196.896 830 C 1194.144 841.825, 1186.758 874.710, 1180.483 903.078 C 1174.208 931.446, 1166.582 965.335, 1163.537 978.388 C 1160.492 991.440, 1158 1002.390, 1158 1002.720 C 1158 1003.050, 1130.888 1002.910, 1097.750 1002.410 C 1029.338 1001.377, 1012.468 1001.486, 999 1003.050 C 923.155 1011.859, 859.954 1058.161, 786.746 1158.552 C 770.961 1180.198, 738.074 1231.966, 732.916 1243.284 C 731.239 1246.966, 728.657 1246.941, 729.381 1243.250 C 729.677 1241.737, 731.086 1231.630, 732.511 1220.789 C 736.172 1192.941, 746.551 1130.605, 752.090 1103.205 C 753.103 1098.192, 753.647 1097.497, 762.260 1090.205 C 809.935 1049.840, 844.657 1016.249, 888.583 968 C 937.690 914.060, 988.613 848.543, 1022.766 795.360 C 1074.133 715.372, 1103.940 650.418, 1121.821 579.500 C 1139.896 507.811, 1140.731 450.320, 1124.405 401.460 C 1113.611 369.156, 1087.087 342.073, 1055.833 331.443 C 1041.075 326.424, 1019.332 324.217, 1002.252 326.004 M 999.500 426.404 C 965.773 437.116, 926.037 494.605, 888.412 587.123 C 862.356 651.194, 835.901 732.933, 811.583 824.500 C 801.785 861.393, 784 936.599, 784 941.138 C 784 945.212, 793.723 935.876, 819.030 907.500 C 847.167 875.951, 885.363 828.606, 910.561 794.045 C 984.957 692.003, 1030.957 594.735, 1043.471 513 C 1046.035 496.259, 1046.571 470.391, 1044.590 459.077 C 1041.690 442.512, 1036.039 432.675, 1026.761 428.038 C 1021.352 425.335, 1019.732 425.007, 1012.090 425.067 C 1007.366 425.104, 1001.700 425.705, 999.500 426.404" stroke="none" fill="#5d8a5e" fill-rule="evenodd"></path></svg>
