<svg xmlns="http://www.w3.org/2000/svg" viewBox="0 0 1556 1556" shape-rendering="geometricPrecision"><circle cx="778" cy="778" r="767" fill="#31645e"/><circle cx="778" cy="778" r="718" fill="#fff"/><path fill="#31645e" fill-rule="evenodd" d="M771.9 203.32c-7.03 1.98-9.3 3.78-30.51 24.2A902 902 0 0 0 656 322.85c-42.72 55.27-88.61 131.35-116.56 193.24-9.69 21.45-7.5 25.3 18.98 33.32 20 6.06 20.37 5.87 30.45-16 26.74-58.05 61.96-116.6 104.61-173.91 18.71-25.14 56.02-68.5 58.95-68.5 2.21 0 2.4 17.15 2.23 208.5-.18 203.36-.97 183.54 7.72 193.17 7.5 8.3 15.3 11 23.72 8.2 5.9-1.98 13.21-8.2 16.41-13.97l2.99-5.4V485.75c0-148.5.28-195.75 1.17-195.75 2.8 0 31.52 33.19 55.83 64.5 69.04 88.93 123.7 197.58 147.42 293a643 643 0 0 1 12.22 63.5c2.57 19.02 3.58 59 1.94 76.46-2.42 25.74-9.3 58.68-18.1 86.7-2.19 6.95-3.98 13.75-3.98 15.1 0 4.7 4.13 8.97 13.52 13.96 10.5 5.58 15.2 7.08 21.77 6.97 7.23-.12 10.85-2.86 14.46-10.94 8.22-18.4 18.82-61.95 22.95-94.25 2.43-19.06 2.42-73.11-.02-95-5.51-49.47-22.09-113.73-42.17-163.49-24.94-61.78-51.33-111.26-92-172.51-36.8-55.41-68.69-94.08-117.3-142.25-19.63-19.46-24.98-24.21-29.64-26.35-6.75-3.09-15.23-3.9-21.67-2.08m310.9 354.59c-7.25.53-9.1 1.02-11.21 3-5.66 5.32-5.81 13.23-.56 29.28 5.2 15.91 9.3 18.81 26.73 18.81 15 0 39.05 5.04 55.69 11.66 23.7 9.44 39.02 19.67 58.06 38.78 7.7 7.73 16.87 18.11 20.36 23.06 12.3 17.45 22.41 42.11 27.27 66.5 3.23 16.26 3.27 39.85.09 55.64-4.58 22.72-13.92 45.17-26.57 63.86-8.94 13.2-31.3 35.3-44.66 44.14-23.52 15.55-49.9 25.3-77 28.42-16.36 1.89-44.5.7-59.86-2.52-25.85-5.43-55.6-16.79-78.64-30.02-27.59-15.85-62.17-41.83-93-69.88-18.8-17.1-62.5-61.04-62.5-62.84 0-2.26 37.3-40.3 57.5-58.64 27.28-24.76 53.61-45.1 86.01-66.45 10.94-7.2 16.61-11.58 17.96-13.87 3.03-5.14 2.5-12.39-1.9-25.7-4.5-13.67-7.77-17.95-14.33-18.84-5.75-.77-12.27 2.53-35.42 17.9-42.14 27.99-71.78 52.66-114.2 95.04-17.53 17.52-32.41 31.72-33.07 31.56-.65-.17-7.8-7.27-15.87-15.8-46.37-48.98-99.66-93.38-143.72-119.77-38.37-22.97-84.48-38.55-125.23-42.31-15.84-1.46-47.56-.68-61.23 1.5-60.67 9.68-116.5 45.35-150.35 96.08-15.27 22.87-23.28 41.13-30.58 69.68-9.04 35.35-8.58 66.59 1.54 104.82 22.3 84.23 92.77 147.8 177.89 160.46 15.68 2.33 41.98 3.02 59.97 1.58 18.39-1.47 21.69-2.4 24.74-6.94 4.04-6 3.25-10.16-4.96-26.27-4.52-8.86-8.29-14.97-10-16.22-2.6-1.9-4.37-2.02-30-2.1-30.68-.09-35.03-.68-56.75-7.7-25.38-8.22-46.65-20.76-64.78-38.22-26.3-25.3-41.03-52.27-48.94-89.59-2.3-10.8-2.65-14.87-2.65-30 0-15.12.36-19.21 2.65-30.06 7.27-34.39 20.17-59.13 43.19-82.82 19.76-20.33 34.84-30.88 57.1-39.93 23.4-9.52 44.13-13.5 70.43-13.56 20.52-.03 31.56 1.3 49.95 6.02 50.45 12.97 100.33 44.11 164.44 102.68 23.64 21.6 56.61 55.22 56.61 57.75 0 1.97-41.86 43.78-62.5 62.42-16.91 15.27-45.39 38.11-61.35 49.2-16.21 11.28-19.65 14.42-21.74 19.9-2.13 5.57-1.31 8.8 5.68 22.46 6.38 12.46 9.17 15.13 16.38 15.73 3.33.28 6.78-.07 8.7-.86 3.62-1.5 26.89-18.02 43.33-30.76 28.08-21.76 50.88-42.3 83.67-75.32C768.2 825.73 779.51 815 780.32 815c.82 0 7.49 6.37 14.83 14.15 36.75 38.96 87.35 83.09 121.48 105.94 37.07 24.8 62.62 37.2 99.72 48.37 39.04 11.75 86.45 13.62 125.4 4.95 38.58-8.6 70.62-25.14 100.63-51.97 44.08-39.42 71.08-100.04 71.02-159.44-.06-52.48-19.6-103.74-55.22-144.75-7.02-8.1-26.1-25.13-36.52-32.6-29.9-21.47-68.06-36.6-102.16-40.51-13.03-1.5-26.74-1.96-36.7-1.23m-580.5 81.05a15 15 0 0 0-4.66 4.77c-2.05 3.97-9.33 40.33-11.06 55.27-5.45 46.99-4.39 92.84 3 130 12.41 62.37 38.47 123.78 77.17 181.83 28.51 42.79 55.87 75.57 89.89 107.74 23.67 22.38 33.67 29.81 47.5 35.3 11.78 4.66 22.5 6.5 34.32 5.86 31.43-1.7 55.79-21.4 64.78-52.42l2.26-7.81v-229l-2.17-4.05c-2.81-5.26-10.8-14.13-14.41-16-4.17-2.15-13.46-1.85-18.54.6-5.23 2.54-10.9 8.68-13.72 14.83-2.1 4.6-2.1 5.15-2.38 112.62-.18 68.85-.65 109.83-1.3 113.06-1.94 9.5-10.3 16.44-19.84 16.44-8.58 0-16.98-5.25-34.45-21.52-55.8-51.98-101.03-114.3-129.19-177.98-18.14-41.02-28.95-79.76-33.06-118.51-1.28-12-1.53-21.24-1.11-40.99.6-28.75 2.5-45.52 8.22-72.96 3.86-18.49 3.83-19.9-.58-26.08q-4.67-6.55-20.25-10.55c-11.27-2.9-16.23-3-20.42-.45m446.97 349.79c-1.81.99-8.28 8.26-14.9 16.75-22.93 29.39-33.62 41-77.25 84-14.51 14.3-31.24 31.7-37.16 38.68-25.63 30.17-42.03 57.6-52.24 87.32-10.64 30.98-13.68 55.37-13.7 110.07-.02 34.05.53 37.38 7.37 43.96 4.9 4.71 9.95 6.47 18.61 6.47 8.46 0 13.28-1.62 18.49-6.2 7.14-6.29 7.33-7.54 7.84-52.3.33-29.6.83-41.41 2.07-49 3.37-20.59 8.9-38.22 17.6-56 12.56-25.7 26.81-43.48 66.92-83.49a3302 3302 0 0 0 40.39-40.84c17-17.9 46.52-54.37 55.63-68.74 8.2-12.92 1.03-22.32-22.74-29.81-9.77-3.08-12.62-3.23-16.93-.87"/></svg>
